# xmcd CD database file
#
# Track frame offsets:
#	151
#	10639
#	23864
#	35420
#	50251
#	63866
#	74116
#	85244
#	96935
#	107546
#	120716
#	134191
#	145764
#	157994
#	172370
#	185837
#	198588
#	210404
#	222781
#	236645
#	248105
#	260252
#	275298
#	289370
#
# Disc length: 4005 seconds
#
# Revision: 1
# Processed by: cddbd v1.5.2PL0 Copyright (c) Steve Scherf et al.
# Submitted via: CDex 1.70beta2
#
DISCID=6c0fa318
DTITLE=Ernst Mosch - 24 Goldene Melodien - Das Beste von Ernst Mosch
DYEAR=1900
DGENRE=Blasmusik
TTITLE0=Radetzky-Marsch
TTITLE1=Rosalie
TTITLE2=Tanz mit mir
TTITLE3=Zum Egerländer Brückenwirt
TTITLE4=Kannst du Knödel kochen
TTITLE5=Kulmer Rübermarsch
TTITLE6=Schönfelder Marsch
TTITLE7=Tag und Nacht denk ich nur an dich
TTITLE8=Die erste Liebe
TTITLE9=Gossengrüner Zuckerbäcker
TTITLE10=Blumenmädchen
TTITLE11=Schaut her, schaut her
TTITLE12=Erzherzog Albrecht-Marsch
TTITLE13=Mit dir mal in Urlaub gehn
TTITLE14=Herz-Schmerz-Polka
TTITLE15=Zahl mir was, ich zahl dir auch was
TTITLE16=Verliebte Stunden
TTITLE17=Der Wittmann Franz
TTITLE18=Musikantenparade
TTITLE19=Ich bin verliebt in deine schönen Augen
TTITLE20=Pfeffer und Salz
TTITLE21=Darf ich wagen, dich zu fragen
TTITLE22=Wir seh'n uns wieder
TTITLE23=Wir geh'n heut' zum Ball
EXTD=
EXTT0=
EXTT1=
EXTT2=
EXTT3=
EXTT4=
EXTT5=
EXTT6=
EXTT7=
EXTT8=
EXTT9=
EXTT10=
EXTT11=
EXTT12=
EXTT13=
EXTT14=
EXTT15=
EXTT16=
EXTT17=
EXTT18=
EXTT19=
EXTT20=
EXTT21=
EXTT22=
EXTT23=
PLAYORDER=
